<?xml version="1.0" encoding="UTF-8" standalone="no"?>
<!-- Generator: Adobe Illustrator 16.0.4, SVG Export Plug-In . SVG Version: 6.00 Build 0)  -->

<svg
   xmlns:dc="http://purl.org/dc/elements/1.1/"
   xmlns:cc="http://creativecommons.org/ns#"
   xmlns:rdf="http://www.w3.org/1999/02/22-rdf-syntax-ns#"
   xmlns:svg="http://www.w3.org/2000/svg"
   xmlns="http://www.w3.org/2000/svg"
   xmlns:sodipodi="http://sodipodi.sourceforge.net/DTD/sodipodi-0.dtd"
   xmlns:inkscape="http://www.inkscape.org/namespaces/inkscape"
   version="1.1"
   x="0px"
   y="0px"
   width="64px"
   height="64px"
   viewBox="0 0 64 64"
   enable-background="new 0 0 64 64"
   xml:space="preserve"
   id="svg2"
   inkscape:version="0.91 r13725"
   sodipodi:docname="close.svg"><metadata
     id="metadata48"><rdf:RDF><cc:Work
         rdf:about=""><dc:format>image/svg+xml</dc:format><dc:type
           rdf:resource="http://purl.org/dc/dcmitype/StillImage" /><dc:title></dc:title></cc:Work></rdf:RDF></metadata><defs
     id="defs46" /><sodipodi:namedview
     pagecolor="#ffffff"
     bordercolor="#666666"
     borderopacity="1"
     objecttolerance="10"
     gridtolerance="10"
     guidetolerance="10"
     inkscape:pageopacity="0"
     inkscape:pageshadow="2"
     inkscape:window-width="1232"
     inkscape:window-height="903"
     id="namedview44"
     showgrid="false"
     inkscape:zoom="3.6875"
     inkscape:cx="32"
     inkscape:cy="10.305085"
     inkscape:window-x="568"
     inkscape:window-y="455"
     inkscape:window-maximized="0"
     inkscape:current-layer="svg2" /><g
     id="v1"
     display="none"><path
       display="inline"
       fill="#929497"
       stroke="#000000"
       stroke-width="2.6226"
       d="M17.89,42.064"
       id="path5" /><g
       display="inline"
       id="g7"><polygon
         fill="#929497"
         stroke="#929497"
         stroke-width="1.4469"
         points="26.237,24.395 6.101,33.624 8.177,11.571   "
         id="polygon9" /><path
         fill="none"
         stroke="#929497"
         stroke-width="8"
         d="M13.302,21.226C17.2,13.728,25.038,8.606,34.071,8.606    c12.92,0,23.394,10.474,23.394,23.394S46.991,55.394,34.071,55.394c-6.229,0-11.889-2.435-16.081-6.404"
         id="path11" /></g></g><g
     id="v2"
     display="none"><path
       display="inline"
       fill="#929497"
       stroke="#000000"
       stroke-width="2.6226"
       d="M17.89,42.064"
       id="path14" /><g
       display="inline"
       id="g16"><polygon
         fill="#929497"
         stroke="#929497"
         stroke-width="1.4469"
         points="31.07,23.636 9.843,17.304 25.94,2.088   "
         id="polygon18" /><path
         fill="none"
         stroke="#929497"
         stroke-width="8"
         d="M23.431,12.727c7.873-3.07,17.143-1.755,23.937,4.199    c9.717,8.516,10.689,23.295,2.174,33.012c-8.516,9.716-23.296,10.689-33.012,2.174c-4.684-4.105-7.336-9.667-7.873-15.416"
         id="path20" /></g></g><g
     id="final_undo"
     display="none"><path
       display="inline"
       fill="#929497"
       stroke="#000000"
       stroke-width="2.6226"
       d="M17.89,42.064"
       id="path23" /><path
       display="inline"
       fill="#D1D1D1"
       d="M59.834,59.667c0,0,18.166-45-33.834-43.5V30C26,30,65.668,26.834,59.834,59.667z"
       id="path25" /><g
       display="inline"
       id="g27"><path
         fill="#D1D1D1"
         d="M26,40.559c0,1.1-0.559,1.455-1.434,0.788L2.291,24.328c-0.875-0.666-0.835-1.757,0.04-2.423l22.216-17.02    C25.421,4.219,26,4.574,26,5.674V40.559z"
         id="path29" /><path
         fill="none"
         stroke="#D1D1D1"
         stroke-width="2"
         d="M26,40.559c0,1.1-0.559,1.455-1.434,0.788L2.291,24.328    c-0.875-0.666-0.835-1.757,0.04-2.423l22.216-17.02C25.421,4.219,26,4.574,26,5.674V40.559z"
         id="path31" /></g></g><path
     style="fill:none;fill-opacity:1;fill-rule:evenodd;stroke:#fbfbfb;stroke-width:9.5;stroke-linecap:butt;stroke-linejoin:miter;stroke-miterlimit:4;stroke-dasharray:none;stroke-opacity:1"
     d="M 4.6779662,4.6779661 59.322034,59.322034"
     id="path4176"
     inkscape:connector-curvature="0" /><path
     style="fill:none;fill-opacity:1;fill-rule:evenodd;stroke:#fbfbfb;stroke-width:9.5;stroke-linecap:butt;stroke-linejoin:miter;stroke-miterlimit:4;stroke-dasharray:none;stroke-opacity:1"
     d="M 4.677964,59.322038 59.322036,4.677962"
     id="path4176-3"
     inkscape:connector-curvature="0" /></svg>